<?xml version="1.0" encoding="utf-8"?>
<!-- Generator: Adobe Illustrator 27.1.1, SVG Export Plug-In . SVG Version: 6.00 Build 0)  -->
<svg version="1.1" id="Capa_1" xmlns="http://www.w3.org/2000/svg" xmlns:xlink="http://www.w3.org/1999/xlink" x="0px" y="0px"
	 viewBox="0 0 259.3 35.8" style="enable-background:new 0 0 259.3 35.8;" xml:space="preserve">
<style type="text/css">
	.st0{fill:#030304;}
	.st1{fill:#2BB0AE;}
</style>
<g>
	<g>
		<g>
			<polygon class="st0" points="2.2,1.6 9.1,1.6 9.1,16.6 20,1.6 28.6,1.6 16.7,17.9 28.6,34.2 20.1,34.2 9.1,19.3 9.1,34.2 
				2.2,34.2 			"/>
		</g>
		<g>
			<polygon class="st0" points="33.6,1.6 40.6,1.6 40.6,27.3 54.5,27.3 54.5,34.2 33.6,34.2 			"/>
		</g>
		<g>
			<polygon class="st0" points="59,1.6 59,34.2 80.7,34.2 80.7,27.4 66,27.4 66,21.3 77.6,21.3 77.6,14.4 65.9,14.4 65.9,8.4 
				80.7,8.4 80.7,1.6 			"/>
		</g>
		<g>
			<polygon class="st0" points="122.8,1.6 122.8,34.2 129.8,34.2 129.8,15.1 143.6,34.2 149.5,34.2 149.5,1.6 142.7,1.6 142.7,20.9 
				128.7,1.6 			"/>
		</g>
		<g>
			<rect x="156.1" y="14.9" class="st0" width="10.8" height="6"/>
		</g>
		<g>
			<polygon class="st0" points="169.3,1.5 178.2,1.5 185.2,25 192.2,1.5 200.6,1.5 189.4,34.4 180.3,34.4 			"/>
		</g>
		<g>
			<polygon class="st0" points="204.9,2 204.9,34.2 226.6,34.2 226.6,27.5 211.8,27.5 211.8,21.5 223.4,21.5 223.4,14.6 211.7,14.6 
				211.7,8.7 226.6,8.7 226.6,2 			"/>
		</g>
		<g>
			<polygon class="st0" points="230.9,1.7 230.9,8.5 239.9,8.5 239.9,34.2 248.1,34.2 248.1,8.5 257.2,8.5 257.2,1.7 			"/>
		</g>
		<g>
			<path class="st1" d="M86.6,28.1h6.6c0,0,0.8-0.1,1.7,0.4l4.9,2.1h2.8c0,0,2.2-0.1,1.6,1.8c0,0-0.3,1.2-1.2,1.4h-7.4v0.7h6.4
				c2.3,0.1,2.5-1.2,2.5-1.2l8.5-3.4c0,0,1.4-0.5,2.4,0.8c1,1.3-1.3,3-1.3,3h5.3L104.4,1.6h-5.2 M106.5,23.8c-1,3.7-4.6,2.7-4.6,2.7
				C102.7,22.6,106.5,23.8,106.5,23.8z M101.6,10.2c0,0,7.9,6.6,0.3,14.6v1.8V30h-0.7V17.4l-1.3,5.7C99.9,23.2,94.4,17.3,101.6,10.2
				z"/>
		</g>
	</g>
</g>
<g>
	<path d="M250.9,31c0-1.7,1.3-3,2.9-3c1.6,0,2.9,1.3,2.9,3s-1.3,3-2.9,3C252.2,34,250.9,32.7,250.9,31z M256.3,31
		c0-1.4-1.1-2.5-2.4-2.5c-1.4,0-2.4,1.1-2.4,2.5c0,1.4,1.1,2.5,2.4,2.5C255.2,33.5,256.3,32.5,256.3,31z M252.8,32.6v-3.2h1.3
		c0.6,0,1,0.3,1,0.9c0,0.5-0.2,0.7-0.6,0.8v0c0.7,0.1,0.4,1.4,0.6,1.4v0h-0.6c-0.1-0.1,0.2-1.3-0.8-1.3h-0.5v1.3H252.8z M253.3,29.9
		v0.9h0.5c0.3,0,0.7,0,0.7-0.5c0-0.5-0.4-0.5-0.7-0.5H253.3z"/>
</g>
</svg>
