<?xml version="1.0" encoding="utf-8"?>
<!-- Generator: Adobe Illustrator 27.1.1, SVG Export Plug-In . SVG Version: 6.00 Build 0)  -->
<svg version="1.1" id="Capa_1" xmlns="http://www.w3.org/2000/svg" xmlns:xlink="http://www.w3.org/1999/xlink" x="0px" y="0px"
	 viewBox="0 0 368 381" style="enable-background:new 0 0 368 381;" xml:space="preserve">
<style type="text/css">
	.st0{fill:url(#SVGID_1_);}
	.st1{fill:#6A6A69;}
	.st2{fill:#FFFFFF;}
	.st3{fill:#535450;}
	.st4{fill:url(#R_trousers_2_-i2_00000159468168609749641650000001041231041895724974_);}
	.st5{fill:url(#neck-i2_00000080167959572826851290000005660094895178601912_);}
	.st6{fill:#F7BDB9;}
	.st7{fill:url(#eyeglasses-i2_00000003075440076811613800000010860732493438169505_);}
	.st8{fill:#1D1F3E;}
	.st9{fill:#272F65;}
	.st10{fill:url(#SVGID_00000117642244115573283620000015990883850033386142_);}
	.st11{fill:#4184C5;}
	.st12{fill:url(#SVGID_00000057146293065630901200000005796739980567061888_);}
	.st13{fill:#E9F5F9;}
	.st14{fill:#CFCECE;}
	.st15{fill:#F49527;}
	.st16{fill:#EB5B2B;}
	.st17{fill:#F9C4B1;}
	.st18{fill:#252F61;}
	.st19{fill:#05808B;}
	.st20{fill:#ED6B84;}
</style>
<g transform="translate(660.0 179.0) rotate(0.0 -189.0 582.0) scale(-2.3333333333333335 2.328)">
	<g>
		<g transform="translate(-0.0 -0.0)">
			
				<linearGradient id="SVGID_1_" gradientUnits="userSpaceOnUse" x1="-1064.9469" y1="23.2173" x2="-1033.4069" y2="73.6119" gradientTransform="matrix(-0.3507 0 0 -0.3499 -133.9227 -27.0804)">
				<stop  offset="0" style="stop-color:#F7BDB9"/>
				<stop  offset="1" style="stop-color:#F4A09E"/>
			</linearGradient>
			<path class="st0" d="M248.8-35c-1.3,1.4-6,3.9-7.3,1.9c-1.3-2.1-4.5-8.2-3-15.3c0.2-1,0.3-2,0.4-3.1c0-0.4,0.1-0.9,0-1.3
				c-0.1-0.4-0.4-0.8-0.8-0.8c-0.2,0-0.7,0-0.7,0.5c-0.1,1.1-0.2,2.2-0.3,3.3c-0.6-0.2-1.8-1.5-2.2-0.4c-0.8,1.9,0,1.5-2.6,7
				c-0.4,0.7,0.1,1.6,0.2,2.5c0.5,3,1.1,6.1,2.4,8.8c0.7,1.6,1.7,3.1,3.2,4c1,0.6,2.1,0.9,3.2,1.1c2.3,0.6,4.9,1.1,7.1,0
				c-0.1-4.9,4.6-8.6,5.5-13.4C252.2-38.4,250.5-36.7,248.8-35z"/>
			<polygon class="st1" points="262.8,-36 247.4,-22.7 229.7,-43.1 245,-56.4 			"/>
			<path class="st2" d="M271.4-55c-0.4-0.6-1.5-1.7-1.5-1.7s-0.8,0.1-1.1,0.1c-1.9-0.4-5,0.3-5,0.3s-3.5,3.7-4.9,5.3
				C252-43,245.5-34,244.2-23.5c5.7,0.9,11.5,1.4,17.3,1.6c3.1-4.7,6.3-9.4,8.4-14.6s3.3-11,2.2-16.5C272-53.8,271.8-54.4,271.4-55z
				"/>
			<g id="shoes_2_-i2_00000145764644754784846030000017068141711091311763_">
				<path id="R_shoe_2_-i2_00000032637332840101577670000008667341602375567799_" class="st3" d="M268.4,73.7l4,11.3l-28.6,0
					c0,0,1.5-2.8,6.4-4.9c4.9-2.1,8.9-6.4,8.9-6.4L268.4,73.7"/>
			</g>
			
				<linearGradient id="R_trousers_2_-i2_00000018196226531629998710000012537208621526126768_" gradientUnits="userSpaceOnUse" x1="-1096.7509" y1="-176.1847" x2="-976.202" y2="-176.1847" gradientTransform="matrix(-0.3507 0 0 -0.3499 -133.9227 -27.0804)">
				<stop  offset="0" style="stop-color:#26336B"/>
				<stop  offset="0.51" style="stop-color:#242C59"/>
				<stop  offset="1" style="stop-color:#20264B"/>
			</linearGradient>
			
				<path id="R_trousers_2_-i2_00000091726314588865099250000012235664937926596265_" style="fill:url(#R_trousers_2_-i2_00000018196226531629998710000012537208621526126768_);" d="
				M251.6,33.2c0,7.2,7.6,40.5,7.6,40.5h9.6c0,0-0.7-9.5-1.1-15.6c-0.4-6.1-2.1-4.8-1.4-9.6c0.6-4.7,0.1-7.8-0.9-12.8
				c-2.5-5.7-2.6-8.1-0.6-21.1c-0.3-4.8-0.3-10.7-0.1-15.1c-0.8,0.7-3-4.3-3-4.3c-3.7,0.8-7.4,1.1-11,1.1
				C251.4,8.3,252,27,251.6,33.2z"/>
			<g id="head-i2_00000007420955484338314060000007233645371080066469_">
				
					<linearGradient id="neck-i2_00000026121506132077017820000003547354311607444647_" gradientUnits="userSpaceOnUse" x1="484.2259" y1="-109.1642" x2="505.1663" y2="-229.3451" gradientTransform="matrix(0.1948 0 0 0.1944 173.4688 -29.9968)">
					<stop  offset="0" style="stop-color:#F7BDB9"/>
					<stop  offset="1" style="stop-color:#F4A09E"/>
				</linearGradient>
				
					<path id="neck-i2_00000070107520676863987840000002903930966797243047_" style="fill:url(#neck-i2_00000026121506132077017820000003547354311607444647_);" d="
					M264.3-60.7c0,0,0.7,2.7-0.6,4.4c0,0,3,2.6,6.2-0.4l0,0l-1.1-6.9L264.3-60.7z"/>
				<path id="face-i2_00000061467648842138337410000017305631609185826217_" class="st6" d="M258.7-65.6
					C258.7-65.6,258.7-65.6,258.7-65.6C258.7-65.5,258.7-65.5,258.7-65.6c0,0.2,0,0.4,0,0.5c0.2,1.6-0.6,3.1-0.5,3.6
					c0.1,0.4,1,0.5,1.4,0.4c0.4-0.1,1.4,1.8,3.4,2.6c1.8,0.7,4.1,0,5.4-1.3c-0.3-3.5-1.2-5-4.8-5.6c-4-0.7-4.4-3.1-4.4-3.1
					C258.8-67.6,258.6-66.6,258.7-65.6z"/>
				
					<linearGradient id="eyeglasses-i2_00000076575569726491583370000014236850465256408224_" gradientUnits="userSpaceOnUse" x1="-1112.6156" y1="104.8746" x2="-1070.8295" y2="104.8746" gradientTransform="matrix(-0.3507 0 0 -0.3499 -133.9227 -27.0804)">
					<stop  offset="0" style="stop-color:#26336B"/>
					<stop  offset="0.51" style="stop-color:#242C59"/>
					<stop  offset="1" style="stop-color:#20264B"/>
				</linearGradient>
				
					<path id="eyeglasses-i2_00000178887316269365565950000010024546933990505383_" style="fill:url(#eyeglasses-i2_00000076575569726491583370000014236850465256408224_);" d="
					M256.4-64c-0.3-0.8,0-1.6,0.6-1.8h0c0.6-0.2,1.3,0.2,1.6,1c0,0.1,0.1,0.2,0.1,0.3c0.4,0,0.8,0.1,1.1,0.4c0,0,0-0.1,0-0.1
					c0.1-0.4,0.4-0.7,0.8-0.8c0.7-0.2,1.5,0.3,1.9,1.2c0.1,0.4,0.2,0.8,0,1.3c-0.1,0.3-0.3,0.5-0.5,0.7c-0.1,0-0.1,0.1-0.2,0.1
					c-0.4,0.1-0.8,0.1-1.1-0.2c-0.4-0.2-0.6-0.6-0.8-1c-0.1-0.3-0.1-0.6-0.1-0.9c-0.3-0.3-0.7-0.4-1-0.4c0.1,0.5-0.2,0.9-0.5,1.2
					c-0.1,0-0.1,0.1-0.2,0.1C257.4-62.7,256.6-63.2,256.4-64z M260.7-62.2c0.4,0.3,1,0.2,1.4-0.2c0.1-0.1,0.1-0.2,0.2-0.3
					c0.1-0.4,0.1-0.8,0-1.1c-0.3-0.8-1-1.2-1.6-1c-0.1,0-0.1,0-0.2,0.1c-0.2,0.1-0.4,0.3-0.4,0.6C259.8-63.4,260.1-62.6,260.7-62.2
					L260.7-62.2z M257.9-63.2c0.5-0.2,0.7-0.9,0.5-1.5c-0.2-0.7-0.8-1-1.3-0.9c-0.5,0.2-0.7,0.9-0.5,1.5
					C256.8-63.4,257.4-63,257.9-63.2L257.9-63.2z"/>
				<path id="hair-i2_00000168118751990933726160000000064938824818551191_" class="st8" d="M265.1-74.3c3.9-1.1,6.9,1.6,7.4,2.5
					c0.5,1,1,2,1.7,3c0.2,0.2,0.3,0.4,0.5,0.5c0.8,0.8,1.6,1.2,2.6,1.7c1.1,0.6,2,1.2,2.1,2.5c0,0.2-0.2,0.2-0.2,0
					c-0.2-1.9-2.4-2.3-3.8-3.2c0.3,0.3,0.7,0.6,1.1,0.9c1.1,0.6,2,1.5,2.5,2.6c-4.3,4.7-10.5,5-10.5,5c-0.1-2.4-0.4-4-1.3-5
					c1.1,1.6,1.3,3.6,0.5,5.4c-0.1,0.1-0.3,0-0.2-0.1c1-2.1,0.4-4.6-1.4-6.1c-0.8-0.4-1.6-0.6-2.4-0.8c-4-0.7-4.4-3.1-4.4-3.1
					c-0.4,1-0.6,2-0.5,3C256.7-70.6,261.2-73.2,265.1-74.3z"/>
			</g>
			<g id="shoes_1_-i2_00000042007080894449118270000001358154238124738234_">
				<path id="R_shoe_1_-i2_00000048477970697980810870000002221042897293997989_" class="st1" d="M277.3,73.7l4,11.3l-28.6,0
					c0,0,1.5-2.8,6.4-4.9c4.9-2.1,8.9-6.4,8.9-6.4L277.3,73.7"/>
			</g>
			<path id="R_trousers_1_-i2_00000058569232817774158150000012302407983754177714_" class="st9" d="M252.6,33.2
				c0.7,7.2,15.5,40.4,15.5,40.4h9.3c0,0,1.5-9.4,0.3-15.5c-1.2-6.1-3.4-4.8-2.9-9.6c0.4-4.7,0-8-2.5-12.8
				c-3.3-6.1-4.7-7.4-2.9-21.1c0.6-4.8-3-22.2-3.2-26.6c-1.3-1.8-4-1.5-4-1.5c-5.1,0.8-10.2,1.1-15.4,1.1
				C249-0.4,252.5,27,252.6,33.2z"/>
			<path class="st2" d="M251.2,24.4c-0.4,0.1-0.9,0.2-1.3-0.1c-0.4-0.2-0.6-0.8-0.7-1.2c-4-15.2-7.6-31.2-5.1-46.7
				c6.2,0.2,12,0.4,18.2,0.6c0.8,5.1,3.7,9.5,6.3,13.9c4.8,8.3,8.7,17.1,11.4,26.3C270.5,20,260.9,22.4,251.2,24.4z"/>
			<polygon class="st2" points="263.5,-52.2 262.4,-53.4 263.7,-54.5 264.7,-53.2 			"/>
			<polygon class="st2" points="259.3,-46.5 258.3,-47.8 259.6,-48.8 260.6,-47.5 			"/>
			<polygon class="st2" points="255.1,-39.9 254.1,-41.2 255.4,-42.2 256.4,-40.9 			"/>
			<polygon class="st2" points="251.6,-32.1 250.6,-33.4 251.9,-34.4 252.9,-33.1 			"/>
			<polygon class="st2" points="246.4,-13.6 245.4,-14.9 246.7,-15.9 247.7,-14.6 			"/>
			<polygon class="st2" points="246.9,-2.6 245.9,-3.9 247.2,-4.9 248.2,-3.6 			"/>
			<g>
				<path class="st2" d="M261.4-20c-0.1,0-0.1,0-0.2,0c-2,0-4.1-0.4-6.1-0.8c-0.9-0.2-1.9-0.3-2.8-0.5c-3.7-0.5-6.5-0.3-8.7,0.8
					l-0.1-0.3c1.5-0.8,3.1-1.4,4.7-1.6c1.7-0.3,3.4-0.2,4.9-0.2c1.6,0,3.2,0.1,4.7,0.2c1.2,0.1,2.4,0.2,3.6,0.4
					c-0.5-0.2-1-0.4-1.4-0.5c-5.2-1.3-10.7-1.7-16-1l0-0.3c5.3-0.7,10.9-0.4,16.2,1c0.8,0.2,1.7,0.5,2.3,1c0.8,0.2,1.6,0.5,2.3,0.8
					l-0.1,0.3l-0.8-0.2l0-0.1c-0.3-0.1-0.6-0.2-0.9-0.3c0.2,0.2,0.3,0.4,0.4,0.7l0.1,0.1l-0.1,0.1C262.7-20,262.1-20,261.4-20z
					 M249-21.8c1.1,0,2.2,0.1,3.5,0.3c0.9,0.1,1.9,0.3,2.8,0.5c2,0.4,4,0.7,6,0.7c0.6,0,1.2,0,1.7-0.2c-0.2-0.3-0.4-0.6-0.7-0.8
					c-1.5-0.4-3-0.5-4.4-0.6c-1.6-0.1-3.1-0.2-4.7-0.2c-1.5,0-3.2-0.1-4.8,0.2c-0.6,0.1-1.1,0.2-1.7,0.4
					C247.4-21.7,248.2-21.8,249-21.8z"/>
			</g>
			
				<linearGradient id="SVGID_00000078724662318503855330000011578515716848853133_" gradientUnits="userSpaceOnUse" x1="-1047.41" y1="60.5436" x2="-1008.6807" y2="38.0677" gradientTransform="matrix(-0.3507 0 0 -0.3499 -133.9227 -27.0804)">
				<stop  offset="0" style="stop-color:#F7BDB9"/>
				<stop  offset="1" style="stop-color:#F4A09E"/>
			</linearGradient>
			<path style="fill:url(#SVGID_00000078724662318503855330000011578515716848853133_);" d="M240.2-47.4c-0.1-0.2-0.2-0.4-0.4-0.5
				c-1.2-1.2-1.9-1.8-3.3-2.7c-0.3-0.2-0.4-0.4-0.8-0.4c-0.3,0.1-0.8,0.5-0.9,0.8c-0.1,0.4,0.2,1.1,0.5,1.3c0,0,0.1,0.1,0.1,0.1
				c-0.1,0-0.2-0.1-0.3-0.1c-0.7-0.3-0.4-0.3-0.8-0.3c-0.3,0.1-0.8,0.6-0.8,0.9c0,0.2,0.1,0.3,0.2,0.5c-0.2-0.1-0.1-0.1-0.4-0.1
				c-0.3,0.1-0.7,0.4-0.8,0.7c0,0,0,0.2,0,0.2c-0.2,0.1-0.4,0.2-0.6,0.3c-0.2,0.1-0.6,0.5-0.6,0.7c0,0.3,0.3,0.8,0.5,0.9
				c0.7,0.4,1.3,0.6,2.1,0.9c0.4,0.2,0.7,0.3,1,0.4c0.2,0,0.4,0,0.7-0.2c0.1-0.1,0.2-0.3,0.1-0.4c-0.1-0.1,0.2,0,0.5,0.1
				c0.2,0.1,0.4,0,0.8-0.1c0.2-0.1,0.2-0.3,0.2-0.5c-0.1-0.2-0.2-0.3-0.3-0.4c-0.5-0.4-0.8-0.8-1.2-1.1c0.4,0.2,0.8,0.5,1.3,0.6
				c0.4,0.1,0.8,0.3,1.2,0.4c0.3,0,0.5,0,0.9-0.3c0.2-0.1,0.2-0.4,0.2-0.6c-0.1-0.2-0.3-0.3-0.4-0.5c-0.7-0.6-1.2-1-0.9-0.7
				c0.3,0.3,0.7,0.6,1.1,0.7c0.2,0.1,0.5,0.1,0.9-0.1C240.1-46.9,240.2-47.2,240.2-47.4z"/>
			<g>
				<path class="st9" d="M263.1-37.4l-0.3-0.2c0.7-1.2,0-2.7-0.3-3.3c-0.2-0.5-0.6-0.9-0.8-1.3c-0.4-0.5-0.7-1.1-1-1.7
					c-1.1-2.3-0.7-4.9-0.1-7.8c0.4-2.1,2.2-4.8,3-5.1c0.1-0.1,0.3-0.1,0.4,0l-0.1,0.3c0,0,0,0,0,0c-0.4-0.1-2.5,2.7-2.9,4.9
					c-0.6,2.8-1,5.4,0.1,7.6c0.3,0.6,0.6,1.1,1,1.7c0.3,0.4,0.6,0.9,0.9,1.4C263.2-40.3,263.9-38.7,263.1-37.4z"/>
			</g>
			<ellipse class="st9" cx="263.1" cy="-36.2" rx="3.7" ry="3.7"/>
			<g>
				<path class="st11" d="M255.3-20.8l-0.1-0.3c5.3-0.9,5-7,4.9-9.1l0.3,0C260.7-24.6,259-21.5,255.3-20.8z"/>
			</g>
			<g>
				<path class="st11" d="M261.2-20.8c-0.4,0-1.9-0.4-3.2-1.9c-1.1-1.2-2.4-3.5-2-7.5l0.3,0c-0.4,3.9,0.8,6.1,1.9,7.3
					c1.2,1.3,2.6,1.8,3,1.8V-20.8L261.2-20.8z"/>
			</g>
			<g>
				<path class="st9" d="M260.6-29.4H260v-1.4c0-1-0.8-1.8-1.8-1.8h-0.1c-1,0-1.8,0.8-1.8,1.8v1.4h-0.6v-1.4c0-1.3,1.1-2.4,2.4-2.4
					h0.1c1.3,0,2.4,1.1,2.4,2.4V-29.4z"/>
			</g>
			<rect x="254.3" y="-20.4" class="st11" width="1.1" height="-1.1"/>
			<rect x="260.8" y="-20.4" class="st11" width="1.1" height="-1.1"/>
			
				<linearGradient id="SVGID_00000000931886334917740280000003146151905635103628_" gradientUnits="userSpaceOnUse" x1="-1120.5826" y1="-9.0821" x2="-995.1449" y2="-9.0821" gradientTransform="matrix(-0.3507 0 0 -0.3499 -133.9227 -27.0804)">
				<stop  offset="0" style="stop-color:#F7BDB9"/>
				<stop  offset="1" style="stop-color:#F4A09E"/>
			</linearGradient>
			<path style="fill:url(#SVGID_00000000931886334917740280000003146151905635103628_);" d="M272.2-49.1c-2.2,1.6-3.5,8.5-4.6,11
				c-2.4,5.3-5.1,9-6.4,14c-1.8,7.2-1.6,15.6-1.5,24c0,0-0.3,1.4-0.7,2.7h5.4c-0.4-0.4-0.8-0.9-1.3-1.4c-1.1-1.5-1-5.5-0.7-7.6
				c0.4-2.8,1.5-6.2,2.7-8.8c2.2-4.7,5.8-10.6,8-15.4c2.8-5.9,4.4-12.4,4.7-18.9C275.6-50.8,274.4-50.7,272.2-49.1z"/>
			<path class="st2" d="M270.8-56.7c3.9,0.2,6.7,3.6,7.6,7.4c0.9,3.8,0,7.8-1,11.6c-2,7.1-4.6,14-7.7,20.7c-1.5-3.1-6-5.9-9.5-7.8
				c3.9-6.3,5.7-11.3,7-18.6c-0.1-0.1,1.6-4.9,1.9-7.1c0.2-2.1,0.6-4,0.9-6.1C270.2-56.8,270.4-56.8,270.8-56.7z"/>
			<path class="st13" d="M255.3,13.4c-0.4-5.4-1.2-16.8-1.5-18.7c4.2-0.2,8.5-0.3,12.7-0.5c0.3,6.1,0.7,12.2,1,18.3
				C263.5,12.5,259.4,12.8,255.3,13.4z"/>
			<g>
				<path class="st9" d="M258-32.7c-0.3-2.4-0.2-4.9,0.3-7.3c0.3-1.4,0.7-2.5,1.2-3.4c0.5-1,1.3-1.8,2-2.5c1.4-1.4,2.9-2.7,4.5-3.9
					c0.3-0.2,0.5-0.4,0.8-0.6c1.7-1.2,3.5-2.5,4.4-4.4c0.3-0.6,0.6-1.5,0.3-2.4c-0.2-0.7-1-1.3-1.8-1.2l0-0.3c1-0.2,1.9,0.5,2.1,1.4
					c0.3,1,0,2-0.3,2.6c-0.9,2-2.8,3.2-4.5,4.5c-0.3,0.2-0.6,0.4-0.8,0.6c-1.6,1.2-3.1,2.5-4.5,3.9c-0.7,0.7-1.4,1.5-1.9,2.4
					c-0.5,0.9-0.9,1.9-1.1,3.3c-0.5,2.4-0.6,4.8-0.3,7.2L258-32.7z"/>
			</g>
		</g>
	</g>
</g>
<path id="path4458-3-4-6_00000114043027647187031040000002453841901547301796_" class="st14" d="M282.2,207.1c1.9,0,3.5,1.6,3.5,3.5
	v163.3c0,1.9-1.5,3.5-3.5,3.5c-1.9,0-3.5-1.6-3.5-3.5V210.6C278.7,208.6,280.3,207.1,282.2,207.1z"/>
<path id="path5185-0-2-7-6_00000022547549303231014210000007234726189285376411_" class="st14" d="M78,207.1c-1.9,0-3.5,1.6-3.5,3.5
	v163.3c0,1.9,1.5,3.5,3.5,3.5c1.9,0,3.5-1.6,3.5-3.5V210.6C81.5,208.6,79.9,207.1,78,207.1z"/>
<path id="path4470-2-6-5_00000158730681688015568210000010293662534275650477_" class="st14" d="M76.6,260.1c0-1.9,1.6-3.5,3.5-3.5
	h200c1.9,0,3.5,1.5,3.5,3.5c0,1.9-1.6,3.5-3.5,3.5h-200C78.2,263.6,76.6,262,76.6,260.1z"/>
<path id="path4834-8-6-7_00000008129076820422577570000015903720588712059523_" class="st14" d="M76.6,312.5c0-1.9,1.6-3.5,3.5-3.5
	h200c1.9,0,3.5,1.5,3.5,3.5c0,1.9-1.6,3.5-3.5,3.5h-200C78.2,316,76.6,314.5,76.6,312.5z"/>
<path id="rect4754-6-19-0-7_00000102510102096049824350000013172675230090735273_" class="st1" d="M57.5,202.8h245.1
	c3.2,0,5.8,2.6,5.8,5.8c0,3.2-2.6,5.8-5.8,5.8H57.5c-3.2,0-5.8-2.6-5.8-5.8C51.8,205.3,54.3,202.8,57.5,202.8z"/>
<g id="g16751_00000030467090077670450520000015763256842425077677_" transform="translate(-10138.879,-1113.7442)">
	<path id="path7234-2_00000035501222870558480150000004453398660702496656_" class="st14" d="M10309.1,1238.7
		c5.9-0.9,15.2,3.3,25.1,8.5c16.8,8.8,24,12.3,22.6,17.4c-12.8,5.6-32.5,7.5-40.8-3.1C10307.5,1251,10309.1,1238.7,10309.1,1238.7z"
		/>
	<path id="path7213-1_00000131343230280614084720000006772582148040383141_" class="st15" d="M10360.8,1316.5h-123.7
		c0,0-3.7-3.9-1.1-7.4c2.6-3.5-13.6,3.7-16.8,3c-3.2-0.7-0.7-1.6-2.7-2.4c-2-0.9-5.6-4.3-4.3-5.7c1.4-1.4-5.3-5.6-3.5-10
		c1.8-4.4,1.6-4.7,0.5-9.4c-1-4.7,4.1-8.9,7.7-8.7c3.7,0.1-2.1,1.9,0.2,10.1c2.3,8.3,6.1,12.4,11.8,7.9c5.8-4.5,19.2-25,45.5-17.9
		c29.4,7.9,34.7-12.4,39-17.5c4.3-5.1,7.1-9.9,7.7-12.3c0.6-2.4,2.4-8.1,2.2-11.4c-0.2-3.2,5.3,0,5.7,2.8c0.3,2.8,8.8-2.2,15.6-2.2
		c6.8-0.1,10.8-8.8,13.2-5.7c2.4,3.1,0.8,8.9-3.3,13.6c-4.1,4.7-9.2,7.6-10.6,12.2c-1.4,4.7,0.1,6-1.9,12.8
		c-2,6.8-7.4,26.7-9.1,33.5c-1.7,6.8-0.5,10.4,10.9,7.4C10354.5,1306.4,10360.7,1306,10360.8,1316.5L10360.8,1316.5z"/>
	<path id="path7215-5_00000045581450420312204310000015568402710184635561_" class="st16" d="M10259.4,1284.6
		c23.7,8.9-0.1,27,4.3,27.7c4.5,0.7,8-2.2,14.9-2.7c5.1-0.4,5.1,4.4,4.7,6.9h1.5c0.1-0.5,0.3-0.9,0.4-1.6c1.8-7.1-3.9-8.6-11.8-6.3
		c-7.9,2.3-5.6,0.3-2.3-5.3c3.3-5.7,1.7-10.5-2.5-15.2C10265.9,1285,10251.3,1281.6,10259.4,1284.6L10259.4,1284.6z M10306.6,1302.2
		c-0.7,0-3.9,6.4-4.2,12c0,0.9,0.2,1.7,0.5,2.4h4.7c-2.6-2.8-3.4-7.7-1.1-13.2C10306.8,1302.6,10306.8,1302.2,10306.6,1302.2
		L10306.6,1302.2z"/>
	<path id="path7225-2_00000166649589108410378030000015597420843047777724_" class="st16" d="M10337.5,1273.7c0,0-1.1,3.9-3,5.3
		c-1.8,1.3-2.6-2.8-4,0.4c-1.4,3.2-3.1,4.6-3.7,2.4c-0.7-2.2-3.4,0.8-4.4,2.8c-1,2-2.7-1.5-2.7-3.5c0-2-1.2,4.3,1,5.8
		c2.2,1.5,3.6-4.4,5.4-1.2c1.7,3.2,4-5.9,5.7-3.4c1.7,2.5,3.3,0.7,4.6-1.9C10337.6,1277.6,10337.5,1273.7,10337.5,1273.7
		L10337.5,1273.7z"/>
	<path id="path7227-8_00000106837017733033111020000004884848658912413323_" class="st16" d="M10249.3,1302.6
		c-0.2,0-0.5,0.3-0.7,1.1c-0.4,1.7-1.5,3.2-2.6,4.5c1.1-0.1,1.5,0.1,0.9,0.9c-1.1,1.5-1.1,3.1-0.7,4.4
		C10250.7,1307.8,10250.1,1302.6,10249.3,1302.6L10249.3,1302.6z"/>
	<path id="path7232-8_00000089538256959323053560000008587538798827167142_" class="st2" d="M10311.8,1265.9c0,0,6.6,8.7,13.6,11.7
		c7,3,14.3,0.6,14.3,0.6l16.9-13.5c0,0-6.1,1.1-21.7-1.1c-15.6-2.2-25.9-24.9-25.9-24.9S10305.9,1255.5,10311.8,1265.9
		L10311.8,1265.9z"/>
	<path id="path7223-1_00000015333682431982353910000000616681954546623904_" class="st8" d="M10353.2,1231.2c0,0,1.2,2,3.4,0.5
		c2.2-1.4,1.7-4.5-1-2.5C10352.9,1231.2,10353.2,1231.2,10353.2,1231.2z"/>
</g>
<g id="g16696_00000176725598263918913900000017114671080834447020_" transform="translate(-10138.879,-1113.7442)">
	<path id="path27868-8-6-5_00000150820077427370022090000008109116926839607226_" class="st17" d="M10400.1,1458l-4.4,15.6
		c1.9,10.5-3.8,18.6-15.3,7.9c-1.4-1.3,2.2-7,0.4-8.7l-1.5-14.7l10.6-1.8L10400.1,1458z"/>
	<path id="path27870-8-8-4_00000138539273017694323600000009327131774149841078_" class="st2" d="M10395.7,1473.6
		c-2.8,0.8-6,2.2-11.5-1.1c-4.5-2.7-3,4.8,1,7.5c4,2.7,11.3,0.1,12.2-1.9C10398.2,1476.2,10395.7,1473.6,10395.7,1473.6
		L10395.7,1473.6z"/>
	<path id="path27872-8-8-0_00000088814815469741211420000007165526149563790229_" class="st1" d="M10379.1,1470.2c2-2.5,5,5,5.3,5.9
		c2,5.5,11.1,2.2,11.5,0.5c0.3-1.6-0.1-3-0.1-3s5,2.8,5.1,7.8c0,2,0.2,2.4,0.4,3.9c1.3,10.2-55,4.8-47.4-1
		C10357.8,1482.3,10374.7,1475.8,10379.1,1470.2L10379.1,1470.2z"/>
	<path id="path27874-1-1-8_00000154422463473828063420000016049959829549755061_" class="st8" d="M10350,1491
		c-1.1-1.7-2.3-4.7-0.3-6.6c2.2-2.2,5-2.5,5.7,0.2c1.5,5.4,35.3,4.8,40,4.7c4.7-0.1,5.7-4.1,5.7-4.1s2.2,3.4,1.9,5.3
		c-0.2,1.9-1.6,1.9-1.6,1.9h-48.4C10353.1,1492.4,10350.9,1492.4,10350,1491L10350,1491z"/>
	<path id="path27876-6-8-0_00000169519718411557000710000003506703691525869216_" class="st2" d="M10370.2,1476.1c0,0,3.2-1,5.5,0.4
		C10377.9,1477.9,10373.5,1470.4,10370.2,1476.1z"/>
	<path id="path27878-8-1-3_00000156558308918249374340000002888998202588765835_" class="st2" d="M10364.4,1478.9c0,0,3.2-1,5.5,0.4
		C10372.1,1480.7,10367.7,1473.2,10364.4,1478.9z"/>
	<path id="path27866-6-9-4_00000005970137655004359000000015325010639395212446_" class="st17" d="M10454.1,1458l4.1,15.6h16.6V1458
		C10467.5,1456,10461.5,1456,10454.1,1458L10454.1,1458z"/>
	<path id="path28060-0-0-4_00000029019168187515404350000006148093179087784373_" class="st2" d="M10474.8,1473.6
		c-3.6-1.1-6.4-1.2-9.5-0.8c0,0,3.3,9.7,8.5,8.2C10479.1,1479.6,10474.8,1473.6,10474.8,1473.6L10474.8,1473.6z"/>
	<path id="path28062-8-9-2_00000181807032244466002020000004957381718148690838_" class="st1" d="M10456.1,1473.6
		c0,0-0.5-2.7,3.1-3.9c3.6-1.2,8.4,0.3,10.4,5.8c2,5.5,5.1,4.4,5.4,2.7c0.3-1.6-0.2-4.6-0.2-4.6s5,2.8,5.1,7.8c0,2,0.2,4.3,0.4,5.8
		c-1.2,5.1-39.4,1.9-31.8-3.8C10452.7,1480.6,10456,1475.9,10456.1,1473.6L10456.1,1473.6z"/>
	<path id="path28064-0-6-7_00000067952871754436001190000011333670523488737460_" class="st2" d="M10456.1,1477.1c0,0,3.2-1,5.5,0.4
		C10463.9,1478.9,10459.4,1471.4,10456.1,1477.1z"/>
	<path id="path28066-84-6-3_00000174560530245809259320000000091107126332143259_" class="st8" d="M10442.2,1490.8
		c-1-1.7-1.8-4.2,0.5-5.6c5-2.9,18.1-2.9,18.8-0.1c1.4,5.4,8.3,4.2,13,4.2c4.7-0.1,5.7-4.1,5.7-4.1s2.2,3.4,1.9,5.3
		c-0.3,1.9-1.6,1.9-1.6,1.9h-35.2C10445.4,1492.4,10443.3,1492.8,10442.2,1490.8L10442.2,1490.8z"/>
	<path id="path28068-3-9-6_00000166659658833774130290000002531481409847870644_" class="st2" d="M10454.1,1480.5c0,0,3.2-1,5.5,0.4
		C10461.8,1482.3,10457.3,1474.8,10454.1,1480.5z"/>
	<path id="path27880-3-1-7_00000171687794245945924000000006225040541602740396_" class="st18" d="M10472.1,1256.7
		c0,0,1.4,96.6,2.1,106.2c0.4,5.5,6.2,58.6,4.7,83.3c-0.5,7.8-4.1,11.8-4.1,11.8h-20.7c0,0-5.8-1.2-7.8-10.6
		c-3.8-18.4-8.5-54-5.5-83.3l-7-32.2c0,0-6.9,23.3-12.4,43.9c-1.3,16.1-7.5,50.9-14.4,71c-2.2,6.5-5.5,10.4-6.8,11.3h-20.7
		c-1.2-1.2-4-6.2-3.8-12.8c0.8-18.3,2.3-58.1,10.9-83.5c0,0,12-74.9,14-84.5c2.1-9.6,4.8-20.5,4.8-20.5L10472.1,1256.7z"/>
	<path id="path27884-4-8-4_00000065769148295278038310000003791857556279810983_" class="st2" d="M10406.7,1251.9
		c-0.3,0-7.1,10.7-3,11.2c22.8,3.3,38.4,4.7,62.2,0.5c4.1-0.7-2.8-11.2-3-11.2L10406.7,1251.9z"/>
	<path id="path27890-6-4-9_00000183214397310304530050000016678723203524712623_" class="st8" d="M10447.6,1143
		c-0.2,1.8-0.2,5.5-1.9,7c-1.7,1.5-3.6,0.1-3.6,0.1l1.2-5.6L10447.6,1143z"/>
	<path id="path6216-7-0_00000132052106213108724450000016054915125501734544_" class="st19" d="M10428,1168.8l19.1-0.6
		c0,0,10.6,9.6,12.2,18.2c1.6,8.6-9.4,71-9.4,71h-37.6c0,0-3.8-58.9-0.9-70C10414.3,1176.4,10428,1168.8,10428,1168.8L10428,1168.8z
		"/>
	<path id="path27892-5-5-9_00000086672527554923820870000001926289978911770293_" class="st17" d="M10443.2,1141.7l3.9,26.5
		c-9.5,17.7-22.2,11.2-19.1,0.6l2.8-14.7L10443.2,1141.7z"/>
	<path id="path27894-2-5-7_00000130611663793922677500000012906063796355875988_" class="st20" d="M10436.5,1150.2l-5.6,3.9l0,0
		l-1.6,7.6C10441.9,1159.7,10436.5,1150.2,10436.5,1150.2L10436.5,1150.2z"/>
	<path id="path27896-8-6-8_00000130605387350987255200000001447791515418896515_" class="st8" d="M10424.9,1123.9
		c-1,0-5.9,0.5-6,5.6c0,5.1,4.1,9.1,4.1,9.1L10424.9,1123.9z"/>
	<path id="path27898-40-0-3_00000145028963753112849580000004373421817076095640_" class="st17" d="M10422.5,1125.7
		c-0.5,1.6-1.3,3.1-1.3,6.6l1.2,16.9c0,0,0,10.5,6.3,9.5c10-1.6,16.5-10.9,16.2-15.8c-0.2-5-0.6-7.7-1.1-15.5
		C10443.3,1119.6,10425.9,1113.7,10422.5,1125.7L10422.5,1125.7z"/>
	<path id="path27900-1-3-5_00000149380505318870964720000004841631667773685154_" class="st8" d="M10445.3,1139.4
		c0,0-4.9,4.5-4.6-1.3c0.3-5.8-2.1-5.6-4.1-6.5c-2.2-0.9-3-0.7-8.9-0.2c-5.8,0.5-6.5-6.9-8.1-10.2c-1.5-3.2,3.8-5,9.9-4.9
		c7.2,0.2,14,3.8,15.4,4.4c1.5,0.6,1.2,2.9,1.2,2.9s1.9,3.5,2.2,5.8C10448.7,1131.7,10445.3,1139.4,10445.3,1139.4L10445.3,1139.4z"
		/>
	<path id="path27902-6-9-9_00000060015079854356806410000012631464536638672548_" class="st17" d="M10449.7,1141.1
		c-0.9,2.5-3.2,3.9-5.1,3.2c-1.9-0.7-2.7-3.3-1.8-5.7c0.9-2.5,3.2-3.9,5.1-3.2C10449.8,1136,10450.6,1138.6,10449.7,1141.1
		L10449.7,1141.1z"/>
	<path id="path27908-2-7-1_00000043457266704534534080000008113552095770834064_" class="st17" d="M10424.4,1139.6
		c0,0-1.5,1.1-2.6,1c-1.1-0.1-0.7,2.9,1.6,3C10425.6,1143.8,10426.4,1138,10424.4,1139.6z"/>
	<path id="path28038-3-8-2_00000052815758777516609070000018374460689524139669_" class="st20" d="M10444.8,1141.7
		c0-0.1-0.3-2.4,0.8-3.6c1.1-1.2,2.8-0.7,2.8-0.1c-0.1,0.6-0.8-0.1-1.7,0.4C10445.7,1139,10448.6,1141.7,10444.8,1141.7
		L10444.8,1141.7z"/>
	<path id="path31724-8-9-0_00000150787751287120154130000017452121802000093615_" class="st8" d="M10433.8,1331.9l-8.7-18.5
		l1.3,44.2L10433.8,1331.9z"/>
	<path id="path4795-4-6-3-7_00000007389650368825423790000018445857291157911447_" class="st2" d="M10447.1,1168.2
		c0,0-1.8,5.6-5.3,16.7c-3.5,11,1.8,53.1,2.1,65.7s7.9,57.8,10.5,67.6c1.5,5.5,1.6,10.8,13.4,11.8c1.7,0.1,2.8,0.4,4.1,0.3
		c0.5,3.4,0.9,4.6,1.5,7.4c4-1,3.4-8.6,7.4-10.6c6.4-3.3,13.3-11.8,11.8-19c-1.5-7.2-9.2-31.7-16.5-46.5
		c-7.3-14.8-2.2-30.2-2.2-30.2l7.3-7.2l1.9-0.1c-7,3.1-7,7.7-2.4,10.4c14.6,8.4,26.4-2.3,21.3-11.3c-10.9-18.9-19.1-37.5-27.1-46.4
		C10467,1167.7,10447.1,1168.2,10447.1,1168.2L10447.1,1168.2z"/>
	<path id="path4797-0-7-9-6_00000028294220940028594150000003321832446192191618_" class="st14" d="M10447.1,1168.2
		c0,0,7.9,10.8,9.7,14.2c1.9,3.4-5.8,10.1-7.1,12.1c-1.3,2,3.7,10.4,4.9,15.1c0.7,3-7.4,20.5-11.7,26.9c-3-30.1-3.2-45.3-1.2-51.6
		C10445.3,1173.8,10447.1,1168.2,10447.1,1168.2L10447.1,1168.2z"/>
	<path id="path5734-3-4-3_00000039830026378287972620000017839264605565878175_" class="st2" d="M10368.1,1217.4
		c0,0-6.3,3.8,3.7,7.1c5.1,5.1,8.5,9.3,14,13.6c5.5,4.3,17.2,3,21.7-6.9c4.4-9.9,3.2-23.7,3.7-27.4c0.5-3.7,0-20.2-1.1-21.3
		c-1.1-1.1-3.2-5-3.2-5s-6,3.4-13,16.3c-4.1,7.8-3.8,15.4-6.4,17.9c-1.8,1.6-3.9-8.7-8.5-1.6
		C10375,1216.6,10368.1,1217.4,10368.1,1217.4L10368.1,1217.4z"/>
	<path id="path4809-9-8-0-0_00000098900089040696664870000013846116989631948427_" class="st2" d="M10428,1168.8
		c0,0-8.6,20-9.1,31.3c-0.5,11.3,1.5,49.4-1.3,62.4c-2.8,13.1-17.3,46.6-17.3,52.9c0,6.3-6.8,8.1-6.8,8.1l-2.5,11.1
		c0,0-11.9-4.2-13.9-11.5c-2-7.3,3.1-10.8,4.9-16.8c1.8-6,20-37.9,18.6-52.8c-1.4-14.9-0.9-64.7,3-72.6c3.9-7.9,23.7-12,23.7-12
		L10428,1168.8z"/>
	<path id="path4811-4-6-6-7_00000024700241656746449840000000892829941751369139_" class="st14" d="M10428,1168.8
		c0,0-8.6,20-9.1,31.3c-0.2,4.6,0.9,24.4,0.1,38.4c-2.5-3.8-13.8-26.1-13.1-31.5c0.9-6.5,6-12.5,6-13.9c0-1.3-5.8-6.4-3.1-9.5
		C10411.5,1180.5,10428,1168.8,10428,1168.8z"/>
	<path id="path5720-2-9-6_00000080907130923474396440000010822071293163732635_" class="st1" d="M10438.7,1193.5l-26.2,0.3
		c-2.4,0-4,2-3.5,4.4l6.8,33.5c0.4,2.4,2.7,4.3,5.1,4.3l26.2-0.3c2.4,0,4-2,3.5-4.4l-6.8-33.5
		C10443.3,1195.4,10441,1193.5,10438.7,1193.5L10438.7,1193.5z"/>
	<path class="st2" d="M10414.8,1198.8c-0.1,0.8-0.8,1.3-1.6,1.2c-0.8-0.1-1.3-0.8-1.2-1.6c0.1-0.8,0.8-1.3,1.6-1.2
		C10414.4,1197.3,10414.9,1198,10414.8,1198.8z"/>
	<path id="path12252-5-9-2_00000065768723567505708570000011348808427395424900_" class="st17" d="M10434.8,1211.6
		c0.2-0.2,0.5-0.3,0.8-0.3c3-0.3,10.6-1.4,11.7-0.3c1.1,1.1,7.2,10.1,7.2,10.1c1.4,1.5,2.5,2.7,2.5,2.7l24.1-3.7
		c13.5,1.3,12.8,13.4,3,13.3c-21-2.1-22-3.4-25.3-3.4c0,0-13.4-3.2-17.2-5.8c-3.8-2.5-3.9-0.2-4.2-1.6c-0.2-1-0.1-3.4,0.1-5.2
		C10436,1216.1,10433.5,1212.7,10434.8,1211.6L10434.8,1211.6z"/>
	<path id="path7126-4-7_00000136405252799134594670000011790160528431102340_" class="st17" d="M10347.6,1167.7
		c-0.1,0-0.3,0-0.3,0.2c-0.9,1.1,1.1,5.4,1.4,6.3c0.3,0.9-7-0.2-12.6-1c-4-0.6-5.9,1.2-4.9,2.1c1,1,0.7,4,6.1,8.3
		c3.9,3.1,13,8.9,15,8.8c1,0,7.5,16.6,18.1,31.9c6.1,8.8,18.6-5.3,13.1-12.1c-6.8-8.4-21-25.8-23.5-28.9
		C10356.5,1175,10349,1167.7,10347.6,1167.7L10347.6,1167.7z"/>
	<path id="path31652-7-1-5_00000155843012856398668220000000312084609855222699_" class="st17" d="M10348.5,1173.9
		c0,0,0.7,4.3,2,6.4c1.3,2.1,2.9,3,2.9,3s-5.2-0.1-6.5-3.3C10345.5,1176.7,10348.5,1173.9,10348.5,1173.9z"/>
</g>
</svg>
